<?xml version="1.0" encoding="iso-8859-1"?>
<!-- Generator: Adobe Illustrator 19.0.0, SVG Export Plug-In . SVG Version: 6.00 Build 0)  -->
<svg version="1.1" id="Capa_1" xmlns="http://www.w3.org/2000/svg" xmlns:xlink="http://www.w3.org/1999/xlink" x="0px" y="0px"
	 viewBox="0 0 461.137 461.137" style="enable-background:new 0 0 461.137 461.137;" xml:space="preserve">
<g>
	<g id="XMLID_532_">
		<path id="XMLID_535_" d="M181.685,161.648l31.184,10.649l29.425-84.291h-11.891c-0.006,0-0.012,0.001-0.019,0.001
			c-0.007,0-0.012-0.001-0.019-0.001H181.13c-23.776,0-43.218,19.344-43.337,43.121c0,0.063-0.309,61.619-0.31,61.681
			c-0.043,8.558,5.156,15.343,12.393,17.815l10.992,3.754l13.188-38.624l0.139,0.048c0.114-22.85,0.071-14.164,0.223-44.489
			c0.01-2.004,1.64-3.621,3.643-3.616c2.003,0.005,3.624,1.631,3.624,3.634V161.648z"/>
		<circle id="XMLID_1191_" cx="230.385" cy="37.954" r="37.954"/>
		<path id="XMLID_1193_" d="M217.407,233.685L217.407,233.685c9.579,3.27,19.982-1.848,23.249-11.412
			c3.269-9.573-1.843-19.981-11.412-23.249L217.407,233.685z"/>
		<path id="XMLID_1195_" d="M322.976,131.127c-0.119-23.776-19.561-43.12-43.338-43.12h-16.162l-31.681,90.755l3.911,1.335
			c19.992,6.827,30.703,28.647,23.875,48.639c-6.824,19.983-28.568,30.727-48.638,23.876l-29.259-9.992
			c0,0,0.009,185.914,0.009,196.541c0,12.137,9.839,21.976,21.976,21.976c12.137,0,21.976-9.839,21.976-21.976
			c0-6.447,0-141.959,0-170.834c0-2.662,2.158-4.82,4.819-4.82c2.58,0,4.67,2.091,4.67,4.67c0,27.466,0,161.237,0,170.984
			c0,12.137,9.839,21.976,21.976,21.976c12.137,0,21.976-9.839,21.976-21.976l-0.391-308.162c-0.003-2.116,1.71-3.833,3.826-3.836
			s3.833,1.709,3.837,3.825c0,0.106-0.001,0.214-0.005,0.324l0.676,134.539c0.051,10.083,8.239,18.221,18.311,18.221
			c0.031,0,0.063,0,0.094,0c10.114-0.051,18.271-8.291,18.221-18.405L322.976,131.127z"/>
	</g>
</g>
<g>
</g>
<g>
</g>
<g>
</g>
<g>
</g>
<g>
</g>
<g>
</g>
<g>
</g>
<g>
</g>
<g>
</g>
<g>
</g>
<g>
</g>
<g>
</g>
<g>
</g>
<g>
</g>
<g>
</g>
</svg>
