<?xml version='1.0' encoding='utf-8'?>
<svg xmlns="http://www.w3.org/2000/svg" id="Layer_1" viewBox="0 0 1000 1000"><defs><style>.cls-1{fill:#ea1552;}</style></defs><path class="cls-1" d="M735.11,43.17c-96.79,0-181.05,53.16-225.73,131.73-4.14,7.27-14.63,7.27-18.76,0-44.69-78.57-128.94-131.73-225.73-131.73C121.43,43.17,5,159.6,5,303.06c0,273.55,408.33,587.16,488.23,651.39,3.96,3.18,9.59,3.18,13.55,0,79.9-64.22,488.23-377.84,488.23-651.39,0-143.46-116.43-259.89-259.89-259.89Zm-83.53,437.39l-266.4,321.99c-9.02,10.9-12.8,8.82-8.39-4.63l84.29-257.5c1.15-3.52-.93-6.4-4.64-6.4h-105.85c-5.7,0-7.39-3.59-3.76-7.99L618.7,197.45c9.02-10.9,12.8-8.82,8.39,4.63l-84.29,257.5c-1.15,3.52,.93,6.4,4.64,6.4h97.28c10.41,0,13.5,6.57,6.86,14.59Z"/></svg>