<svg
    xmlns="http://www.w3.org/2000/svg"
    viewBox="0 0 24 24"
    id="vector">
    <path
        id="path"
        d="M 12 12.9 L 9.87 14.99 C 9.31 15.55 9 16.28 9 17.06 C 9 18.68 10.35 20 12 20 C 13.65 20 15 18.68 15 17.06 C 15 16.28 14.69 15.54 14.13 14.99 L 12 12.9 Z"
        fill="#ca2e2e"/>
    <path
        id="path_1"
        d="M 16 6 L 15.56 6.55 C 14.38 8.02 12 7.19 12 5.3 L 12 2 C 12 2 4 6 4 13 C 4 15.92 5.56 18.47 7.89 19.86 C 7.33 19.07 7 18.1 7 17.06 C 7 15.74 7.52 14.5 8.47 13.56 L 12 10.1 L 15.53 13.57 C 16.48 14.5 17 15.74 17 17.07 C 17 18.09 16.69 19.03 16.15 19.82 C 18.04 18.67 19.44 16.76 19.86 14.52 C 20.52 10.97 18.79 7.62 16 6 Z"
        fill="#ca2e2e"/>
</svg>
