<?xml version="1.0" encoding="utf-8"?>
<!-- Generator: Adobe Illustrator 23.0.3, SVG Export Plug-In . SVG Version: 6.00 Build 0)  -->
<svg version="1.1" id="Layer_1" xmlns="http://www.w3.org/2000/svg" xmlns:xlink="http://www.w3.org/1999/xlink" x="0px" y="0px"
	 viewBox="0 0 148 148" style="enable-background:new 0 0 148 148;" xml:space="preserve">
<style type="text/css">
	.st0{fill:url(#SVGID_1_);}
	.st1{fill:url(#SVGID_2_);}
	.st2{fill:url(#SVGID_3_);}
	.st3{fill:url(#SVGID_4_);}
	.st4{fill:url(#SVGID_5_);}
	.st5{fill:url(#SVGID_6_);}
	.st6{fill:url(#SVGID_7_);}
	.st7{fill:url(#SVGID_8_);}
	.st8{fill:url(#SVGID_9_);}
	.st9{fill:url(#SVGID_10_);}
	.st10{fill:url(#SVGID_11_);}
	.st11{fill:url(#SVGID_12_);}
	.st12{fill:url(#SVGID_13_);}
	.st13{fill:url(#SVGID_14_);}
	.st14{fill:url(#SVGID_15_);}
	.st15{fill:url(#SVGID_16_);}
	.st16{fill:url(#SVGID_17_);}
	.st17{fill:url(#SVGID_18_);}
	.st18{fill:url(#SVGID_19_);}
	.st19{fill:url(#SVGID_20_);}
	.st20{fill:#010101;}
	.st21{fill:url(#SVGID_21_);}
	.st22{fill:url(#SVGID_22_);}
	.st23{fill:url(#SVGID_23_);}
	.st24{fill:url(#SVGID_24_);}
	.st25{fill:url(#SVGID_25_);}
	.st26{fill:url(#SVGID_26_);}
	.st27{fill:#FF462E;}
	.st28{fill:url(#SVGID_27_);}
	.st29{fill:url(#SVGID_28_);}
	.st30{fill:url(#SVGID_29_);}
	.st31{fill:url(#SVGID_30_);}
	.st32{fill:url(#SVGID_31_);}
	.st33{fill:url(#SVGID_32_);}
	.st34{fill:url(#SVGID_33_);}
	.st35{fill:url(#SVGID_34_);}
	.st36{fill:url(#SVGID_35_);}
	.st37{fill:url(#SVGID_36_);}
	.st38{fill:url(#SVGID_37_);}
	.st39{fill:url(#SVGID_38_);}
	.st40{fill:url(#SVGID_39_);}
	.st41{fill:#EFEFEF;}
	.st42{fill:#FFB70D;}
	.st43{fill:#FF3100;}
	.st44{fill:#FFCC01;}
	.st45{fill:#FF3600;}
	.st46{fill:#DF2A00;}
	.st47{fill:#FC3100;}
	.st48{fill:#DF2901;}
	.st49{fill:url(#SVGID_40_);}
	.st50{fill:url(#SVGID_41_);}
	.st51{fill:url(#SVGID_42_);}
	.st52{fill:url(#SVGID_43_);}
	.st53{fill:url(#SVGID_44_);}
	.st54{fill:url(#SVGID_45_);}
	.st55{fill:url(#SVGID_46_);}
	.st56{fill:url(#SVGID_47_);}
	.st57{fill:#F46F24;}
	.st58{fill:#EF2F3E;}
	.st59{fill:#28A54A;}
	.st60{fill:#27B0C3;}
	.st61{fill:#494C55;}
	.st62{fill:#71BD43;}
	.st63{fill:#F05924;}
	.st64{fill:url(#SVGID_48_);}
	.st65{fill:#F24C8A;}
	.st66{fill:#D9D9D9;}
	.st67{fill:#7DD2F0;}
	.st68{fill:#EEE25C;}
	.st69{fill:#464655;}
	.st70{fill:#61B9D9;}
	.st71{fill:#FF6B58;}
	.st72{fill:#FFCE6E;}
	.st73{fill:#F4432C;}
	.st74{fill:#6B6B82;}
	.st75{fill:#B9E578;}
</style>
<g>
	<path d="M140.3,74.2c-0.1,35.4-29.1,64.1-64.4,63.8c-35.2-0.3-63.7-29-63.6-64.1C12.4,38.5,41.4,9.8,76.7,10
		C111.9,10.3,140.4,39,140.3,74.2z"/>
	<path class="st44" d="M20.6,74.1c-0.1-30.4,24.9-55.5,55.5-55.8c30.5-0.2,56.1,25.3,55.9,55.8c-0.2,30.6-25.3,55.6-55.7,55.5
		C45.8,129.7,20.7,104.6,20.6,74.1z"/>
	<path d="M64.2,55c0.3-10.6,4-18.8,13.8-23.3c3-1.4,5.6-0.9,6.3,2.4c1.9,10,8.9,16.5,15.4,23.3c17.4,18.1,10.6,45.9-13.2,53.9
		c-14.4,4.8-31-1.3-38.6-14.2c-7.7-13-5.4-29.9,5.4-39.7C56.3,54.6,59.5,51.4,64.2,55z"/>
	<path class="st43" d="M58.6,63.5c2.5,2.8,4.9,5.1,8.3,6.1c5.5,1.6,8.2-0.5,7.2-6.2c-0.8-4.3-1.5-8.5-0.9-12.9
		c0.4-3.2,1.6-6,4.4-8.7c3.9,9,10.6,15.3,16.8,22.2c7.7,8.5,8.9,19.1,3.7,28.1c-5.5,9.5-16.1,14.1-27.4,11.9
		c-9.3-1.9-17.5-10.5-18.8-20.3C50.8,76.1,53.3,69.5,58.6,63.5z"/>
</g>
</svg>
