<?xml version="1.0" encoding="UTF-8" standalone="no"?> <svg id="Layer_1" data-name="Layer 1" xmlns="http://www.w3.org/2000/svg" viewBox="0 0 128 128"><defs><style>.cls-1{fill:#1d75b8;}.cls-2{fill:#2d3e50;}</style></defs><title>v</title><path class="cls-1" d="M124.75263,74.70255a30.34661,30.34661,0,0,0-6.29528-4.99936c-.59213-.33133-1.1889-.66773-1.79688-.988-.30058-.171-.61468-.3013-.92584-.446l-.93967-.42651c-.3154-.13773-.62807-.29543-.95068-.41177l-.96966-.35645c-.64883-.23616-1.30222-.48166-1.967-.65957a39.757,39.757,0,0,0-8.14193-1.55141c-.68727-.06118-1.379-.13551-2.06275-.14661-.68513-.0214-1.37715-.06007-2.06244-.064l-2.05423.02805c-.6856.012-1.36019.06958-2.04262.10667a65.99051,65.99051,0,0,0-8.03408,1.04582c-.66841.11689-1.29628.2604-1.945.39124-.6482.12886-1.28352.27625-1.915.42413-1.27484.28608-2.51818.6-3.76034.9172-4.94492,1.27072-9.66291,2.67616-14.23656,3.76414-.5745.15065-1.13822.26357-1.70721.396l-.85127.191-.84481.16642c-1.12748.24741-2.242.42524-3.35467.61218l-1.65943.24115-1.64683.18-.41177.04755-.408.02671-.81664.05516-.82222.05547-.86177.02623-1.72627.05436-1.73741.00143-.87029.0023-.87409-.0248-1.75223-.04454c-2.34376-.11554-4.7052-.25185-7.08882-.4983-4.76483-.44846-9.60633-1.15684-14.52288-1.89764l-3.70439-.55806-3.73617-.55457c-2.50134-.35724-5.02333-.71306-7.58851-.94256l-.00491-.00079a1.27447,1.27447,0,0,0-.77341,2.35886c2.20405,1.33816,4.44808,2.56046,6.73284,3.71889q3.42031,1.7462,6.96409,3.283A98.16231,98.16231,0,0,0,35.346,83.32317c2.5521.67708,5.17493,1.17222,7.82082,1.60142l2.00035.26389c.33391.04311.66746.08955,1.00239.12679l1.01032.08915,2.02384.17506,2.03878.08574,1.02078.04089c.34552.00967.70656-.00238,1.05933-.00357l1.06476-.01276.5327-.00729.52648-.02869c.70149-.03836,1.40608-.07861,2.10511-.13377l2.07773-.21793c1.36978-.181,2.7377-.3834,4.06968-.63936l1.00358-.19083.98714-.2146c.65438-.14756,1.32207-.28053,1.96282-.44426,10.38026-2.52876,19.43-6.59951,28.35849-8.62744a59.98677,59.98677,0,0,1,6.783-1.19964,44.39324,44.39324,0,0,1,6.84684-.32935,41.61758,41.61758,0,0,1,6.92228.77725,53.37282,53.37282,0,0,1,6.98319,2.05l.03828.014a1.10037,1.10037,0,0,0,1.1679-1.79534Z"/><path class="cls-1" d="M113.04761,82.15317A45.485,45.485,0,0,0,91.56924,91.139q-1.53087,1.12285-3.05956,2.25029c-5.45622,4.01876-11.098,8.1743-16.89434,11.93852-4.36749,2.83664-9.056,5.45638-14.29255,6.51583,1.44907.63746,2.96668,1.21731,4.56457,1.745,7.75651,2.56276,14.75614,2.884,21.39881.9825,5.35839-1.53342,9.77846-4.91013,13.7568-8.33074,4.98664-4.28757,9.28249-9.4776,13.4368-14.49709l1.03084-1.24433a26.17537,26.17537,0,0,1,11.88063-8.33525A38.32936,38.32936,0,0,0,113.04761,82.15317Z"/><path class="cls-1" d="M67.8661,96.64027q1.59833-1.75738,2.93411-3.54138c-4.78084,1.55672-9.83357,1.58232-14.72349,1.2819-6.48952-.39861-13.0332-1.18886-19.36165-1.95312q-1.7736-.214-3.54712-.426a42.82431,42.82431,0,0,0-21.75355,2.58614,36.1165,36.1165,0,0,0-8.47148,4.79665,24.62555,24.62555,0,0,1,13.58781,1.32405l1.41982.54157c5.724,2.1861,11.64282,4.44638,17.71062,5.64792,4.84087.95873,10.02349,1.677,15.12321.452C57.10661,105.83179,62.69414,102.32877,67.8661,96.64027Z"/><path class="cls-2" d="M27.63549,39.36262l4.73258-2.46037V66.07036c1.83072.23362,3.64194.4414,5.42721.6102,2.30461.2337,4.59627.36358,6.74509.4739l2.47341.0649,2.428-.0065,4.44047-.2207,1.571-.17529,1.83722-.27261c.92834-.1558,1.79823-.29868,2.63571-.48689l1.66842-.35059c.16876-.039.383-.0844.59074-.12981.29864-.065.59724-.12989.90238-.21428l.1363-.03249c2.5773-.6167,5.213-1.33079,8.00452-2.09687,1.98-.5388,4.03148-1.10359,6.12835-1.64247,1.24643-.3181,2.5773-.65569,3.94058-.96079.64269-.1493,1.35033-.3116,2.06442-.4544l.56479-.11681c.48039-.104.96083-.20129,1.46068-.29218A71.75706,71.75706,0,0,1,94.119,58.63709l.67514-.04541c.27915-.01949.55833-.03249.83748-.04549v-21.644l4.73258,2.46037a3.77286,3.77286,0,0,0,4.33658-6.1738l-.09735-.07782L66.11292,12.86274a3.74829,3.74829,0,0,0-4.22623,0L23.39626,33.111l-.09739.07782a3.77315,3.77315,0,0,0,4.33662,6.1738Z"/></svg>