<?xml version="1.0" encoding="UTF-8" standalone="no"?> <svg width="512" height="512" viewBox="0 0 512 512" fill="none" xmlns="http://www.w3.org/2000/svg">
<path d="M347.1 288.41L290.334 237.659C293.7 236.056 296.646 233.69 298.938 230.749C301.229 227.808 302.803 224.373 303.535 220.717C304.266 217.061 304.135 213.285 303.152 209.689C302.168 206.092 300.359 202.775 297.869 200C301.816 195.606 304 189.907 304 184C304 178.093 301.816 172.394 297.869 168C301.866 163.551 304.052 157.767 303.999 151.786C303.945 145.806 301.656 140.062 297.58 135.685C299.747 128.815 304.048 122.814 309.858 118.555C315.668 114.295 322.685 111.999 329.889 112H344C350.365 112 356.47 109.471 360.971 104.971C365.471 100.47 368 94.3652 368 88C368 81.6348 365.471 75.5303 360.971 71.0294C356.47 66.5286 350.365 64 344 64H332.249C313.282 63.9917 294.869 70.3945 280 82.169V24C280 21.8783 279.157 19.8434 277.657 18.3431C276.157 16.8429 274.122 16 272 16H240C237.878 16 235.843 16.8429 234.343 18.3431C232.843 19.8434 232 21.8783 232 24V128C227.366 127.997 222.83 129.336 218.94 131.857C215.051 134.377 211.976 137.97 210.085 142.201C208.195 146.433 207.571 151.121 208.289 155.7C209.007 160.278 211.036 164.55 214.131 168C210.184 172.394 208 178.093 208 184C208 189.907 210.184 195.606 214.131 200C211.641 202.775 209.832 206.092 208.849 209.689C207.865 213.285 207.734 217.062 208.466 220.717C209.198 224.373 210.772 227.808 213.064 230.749C215.356 233.69 218.302 236.056 221.668 237.659L164.9 288.41C153.313 298.459 144.022 310.881 137.655 324.835C131.289 338.788 127.996 353.948 128 369.285C128.034 388.748 132.635 407.931 141.433 425.292C150.23 442.652 162.979 457.707 178.653 469.244L182.188 471.836C203.596 487.535 229.452 496 256 496C282.548 496 308.404 487.535 329.812 471.836L333.347 469.244C349.021 457.707 361.77 442.652 370.567 425.292C379.365 407.931 383.966 388.748 384 369.285C384.004 353.948 380.711 338.788 374.345 324.835C367.978 310.881 358.687 298.459 347.1 288.41ZM357.131 416.369L347.963 398.034C350.633 389.589 351.995 380.785 352 371.928C352 370.921 351.976 369.917 351.942 368.915L367.724 376.806C366.745 390.548 363.149 403.977 357.129 416.369H357.131ZM264 479.7L281.161 459.106C281.232 459.021 281.292 458.93 281.361 458.842C289.339 456.78 297.038 453.758 304.288 449.842L299.612 470.887C288.332 475.838 276.287 478.819 264 479.7V479.7ZM206 467.846L228.39 458.246C237.373 460.789 246.664 462.08 256 462.083C256.627 462.083 257.254 462.057 257.881 462.046L243.515 479.286C230.415 477.803 217.699 473.926 206 467.847V467.846ZM306.919 429.316C292.172 440.196 274.327 446.066 256.001 446.066C237.675 446.066 219.83 440.196 205.083 429.316C196.464 422.995 189.379 414.814 184.354 405.379C179.33 395.945 176.495 385.5 176.06 374.82C175.625 364.14 177.602 353.5 181.843 343.688C186.084 333.877 192.481 325.147 200.558 318.146L256 270.1L311.443 318.149C319.52 325.15 325.917 333.88 330.158 343.691C334.399 353.503 336.376 364.143 335.941 374.823C335.506 385.503 332.671 395.948 327.647 405.382C322.622 414.817 315.537 422.998 306.918 429.319L306.919 429.316ZM145.746 388.516L163.291 395.534C165.317 402.698 168.246 409.575 172.008 416H154.691C150.496 407.278 147.487 398.034 145.745 388.514L145.746 388.516ZM144 369.285C144 358.131 146.05 347.071 150.047 336.658L160.486 362.758C160.163 365.805 160.001 368.867 160 371.931C160 373.642 160.051 375.348 160.153 377.048L144.02 370.595C144.014 370.156 144 369.721 144 369.285ZM211.826 267.92L215.113 284.36L196.293 300.671L193.093 284.671L211.826 267.92ZM232 208H280C282.122 208 284.157 208.843 285.657 210.343C287.157 211.843 288 213.878 288 216C288 218.122 287.157 220.157 285.657 221.657C284.157 223.157 282.122 224 280 224H232C229.878 224 227.843 223.157 226.343 221.657C224.843 220.157 224 218.122 224 216C224 213.878 224.843 211.843 226.343 210.343C227.843 208.843 229.878 208 232 208ZM224 184C224.002 181.879 224.846 179.846 226.346 178.346C227.846 176.846 229.879 176.002 232 176H280C282.122 176 284.157 176.843 285.657 178.343C287.157 179.843 288 181.878 288 184C288 186.122 287.157 188.157 285.657 189.657C284.157 191.157 282.122 192 280 192H232C229.879 191.998 227.846 191.154 226.346 189.654C224.846 188.154 224.002 186.121 224 184V184ZM266.411 257.948L274.516 244.98L304.738 272H282.625L266.411 257.948ZM258.76 240L249.852 254.253L229.02 272.308L225.667 255.545L243.055 240H258.76ZM349.088 349.6C346.569 340.087 342.455 331.069 336.922 322.931L357.222 326.314C362.616 336.391 366.062 347.395 367.382 358.748L349.088 349.6ZM336.573 300.46C339.266 302.797 341.82 305.291 344.221 307.927L319.283 303.77L301.087 288H322.634L336.48 300.379C336.511 300.406 336.542 300.434 336.573 300.46V300.46ZM304 103.263V86.127C311.021 82.9389 318.531 80.9607 326.211 80.276L315.945 98C313.063 98.8339 310.263 99.9263 307.578 101.264C306.349 101.881 305.163 102.558 304 103.263ZM352 88C351.998 90.121 351.154 92.1544 349.654 93.6542C348.154 95.154 346.121 95.9976 344 96H335.594L344.835 80.044C346.8 80.2527 348.619 81.1806 349.942 82.6492C351.264 84.1179 351.997 86.0236 352 88V88ZM288 96.306V118.793C286.084 121.76 284.489 124.921 283.242 128.225C282.168 128.077 281.085 128.002 280 128V104.369C282.435 101.461 285.111 98.7641 288 96.306V96.306ZM248 76.944L264 68.944V91.056L248 99.056V76.944ZM264 32V51.056L248 59.056V32H264ZM248 116.944L264 108.944V128H248V116.944ZM232 144H280C282.122 144 284.157 144.843 285.657 146.343C287.157 147.843 288 149.878 288 152C288 154.122 287.157 156.157 285.657 157.657C284.157 159.157 282.122 160 280 160H232C229.878 160 227.843 159.157 226.343 157.657C224.843 156.157 224 154.122 224 152C224 149.878 224.843 147.843 226.343 146.343C227.843 144.843 229.878 144 232 144ZM175.427 300.46C175.458 300.434 175.489 300.406 175.52 300.379L179.25 297.044L182.532 313.453C176.25 320.393 171.129 328.3 167.364 336.87L159.816 318C164.242 311.505 169.489 305.609 175.427 300.46V300.46ZM164.137 432H184.024C187.578 435.746 191.46 439.166 195.624 442.219C199.43 445.004 203.423 447.526 207.573 449.767L189.636 457.454L188.119 456.341C178.879 449.557 170.783 441.34 164.137 432V432ZM323.885 456.341L320.35 458.934C319.688 459.419 319.011 459.878 318.34 460.348L323.709 436.188C329.865 430.531 335.177 424.019 339.481 416.851L347.381 432.658C340.829 441.727 332.902 449.717 323.885 456.341Z" fill="#ca2e2e"/>
</svg>
